<svg width="512" height="512" viewBox="0 0 512 512" fill="none" xmlns="http://www.w3.org/2000/svg">
  <rect width="512" height="512" rx="112" fill="#0B0618"/>
  <circle cx="256" cy="256" r="188" fill="url(#g)" opacity="0.9"/>
  <path d="M160 170h192c16 0 30 14 30 30v120c0 16-14 30-30 30H160c-16 0-30-14-30-30V200c0-16 14-30 30-30Z" fill="#150D2C" stroke="#FF5DD6" stroke-width="12"/>
  <path d="M188 226h136M188 264h96M188 302h146" stroke="#77F7FF" stroke-width="18" stroke-linecap="round"/>
  <path d="M348 132l13 32 34 3-26 22 8 33-29-18-29 18 8-33-26-22 34-3 13-32Z" fill="#FFD6FA"/>
  <path d="M150 372c34 22 178 22 212 0" stroke="#FF5DD6" stroke-width="18" stroke-linecap="round"/>
  <defs>
    <radialGradient id="g" cx="0" cy="0" r="1" gradientUnits="userSpaceOnUse" gradientTransform="translate(256 256) rotate(90) scale(220)">
      <stop stop-color="#7C3CFF"/>
      <stop offset="0.5" stop-color="#37135F"/>
      <stop offset="1" stop-color="#120820"/>
    </radialGradient>
  </defs>
</svg>
